<?xml version="1.0" encoding="utf-8"?>
<!-- Generator: Adobe Illustrator 27.5.0, SVG Export Plug-In . SVG Version: 6.00 Build 0)  -->
<svg version="1.1" xmlns="http://www.w3.org/2000/svg" xmlns:xlink="http://www.w3.org/1999/xlink" x="0px" y="0px"
	 viewBox="0 0 800 800" style="enable-background:new 0 0 800 800;" xml:space="preserve">
<g id="Background">
	<rect style="fill:#F7F2EE;" width="800" height="800"/>
	<g>
		<g>
			<path style="fill:#142279;" d="M288.492,754.969v-0.258c-0.348,0.398-0.691,0.725-1.031,0.973
				c-0.338,0.252-0.705,0.441-1.102,0.57c-0.395,0.133-0.826,0.195-1.295,0.195c-0.621,0-1.197-0.131-1.725-0.393
				c-0.529-0.264-0.986-0.639-1.373-1.127c-0.387-0.486-0.68-1.059-0.879-1.719c-0.199-0.658-0.299-1.371-0.299-2.137
				c0-1.621,0.396-2.885,1.188-3.791c0.791-0.904,1.834-1.357,3.125-1.357c0.746,0,1.377,0.129,1.891,0.385
				c0.512,0.256,1.012,0.652,1.5,1.182v-3.826c0-0.533,0.105-0.934,0.318-1.207c0.211-0.271,0.514-0.408,0.906-0.408
				s0.695,0.125,0.908,0.375c0.211,0.252,0.318,0.619,0.318,1.107v11.436c0,0.494-0.113,0.863-0.342,1.111
				c-0.229,0.246-0.523,0.369-0.885,0.369c-0.354,0-0.647-0.127-0.879-0.383C288.607,755.809,288.492,755.443,288.492,754.969z
				 M283.393,751.16c0,0.703,0.109,1.301,0.326,1.795c0.219,0.494,0.518,0.865,0.898,1.115c0.381,0.25,0.795,0.377,1.244,0.377
				c0.455,0,0.871-0.119,1.25-0.358c0.375-0.236,0.676-0.602,0.9-1.092c0.227-0.49,0.338-1.105,0.338-1.838
				c0-0.691-0.111-1.285-0.338-1.783c-0.225-0.496-0.527-0.875-0.91-1.139c-0.385-0.262-0.803-0.393-1.26-0.393
				c-0.475,0-0.898,0.135-1.272,0.402c-0.375,0.27-0.664,0.654-0.869,1.158C283.494,749.91,283.393,750.494,283.393,751.16z"/>
			<path style="fill:#142279;" d="M299.926,751.816h-5.07c0.006,0.588,0.123,1.107,0.355,1.557c0.23,0.449,0.539,0.789,0.922,1.016
				c0.383,0.229,0.805,0.342,1.268,0.342c0.311,0,0.594-0.035,0.85-0.108c0.258-0.074,0.506-0.188,0.746-0.344
				c0.24-0.154,0.463-0.32,0.664-0.498c0.203-0.178,0.465-0.42,0.789-0.723c0.133-0.113,0.322-0.172,0.57-0.172
				c0.266,0,0.48,0.074,0.645,0.221c0.164,0.146,0.248,0.35,0.248,0.617c0,0.234-0.092,0.506-0.275,0.82
				c-0.185,0.314-0.461,0.615-0.832,0.902c-0.371,0.289-0.834,0.527-1.396,0.717c-0.559,0.191-1.203,0.285-1.932,0.285
				c-1.666,0-2.961-0.475-3.885-1.424s-1.387-2.238-1.387-3.865c0-0.768,0.113-1.479,0.342-2.133
				c0.228-0.656,0.56-1.217,0.996-1.685c0.438-0.469,0.977-0.828,1.615-1.078c0.641-0.25,1.35-0.375,2.129-0.375
				c1.012,0,1.881,0.213,2.605,0.641c0.727,0.428,1.27,0.981,1.629,1.656c0.361,0.678,0.543,1.369,0.543,2.07
				c0,0.654-0.187,1.076-0.561,1.269C301.131,751.719,300.603,751.816,299.926,751.816z M294.855,750.344h4.701
				c-0.063-0.887-0.303-1.551-0.717-1.99c-0.416-0.441-0.961-0.66-1.639-0.66c-0.647,0-1.178,0.223-1.592,0.668
				C295.195,748.809,294.943,749.469,294.855,750.344z"/>
			<path style="fill:#142279;" d="M311.74,753.059c0,0.715-0.172,1.328-0.521,1.838c-0.348,0.51-0.863,0.897-1.543,1.16
				c-0.682,0.262-1.51,0.393-2.484,0.393c-0.93,0-1.729-0.143-2.393-0.428c-0.666-0.283-1.156-0.641-1.473-1.066
				c-0.316-0.43-0.475-0.857-0.475-1.289c0-0.285,0.1-0.527,0.305-0.731c0.201-0.201,0.459-0.303,0.77-0.303
				c0.272,0,0.479,0.066,0.625,0.199c0.147,0.133,0.285,0.32,0.418,0.559c0.266,0.465,0.584,0.807,0.955,1.037
				c0.371,0.227,0.875,0.342,1.516,0.342c0.52,0,0.945-0.117,1.277-0.348c0.332-0.232,0.498-0.496,0.498-0.793
				c0-0.457-0.172-0.787-0.517-0.996s-0.914-0.41-1.705-0.6c-0.893-0.221-1.619-0.455-2.18-0.699
				c-0.56-0.242-1.008-0.565-1.344-0.963c-0.336-0.398-0.504-0.891-0.504-1.473c0-0.517,0.154-1.01,0.465-1.473
				c0.311-0.461,0.77-0.83,1.375-1.105c0.604-0.275,1.332-0.414,2.188-0.414c0.672,0,1.275,0.07,1.809,0.211
				c0.535,0.137,0.982,0.326,1.34,0.56c0.357,0.233,0.631,0.492,0.816,0.777c0.188,0.285,0.279,0.563,0.279,0.836
				c0,0.297-0.1,0.541-0.297,0.732c-0.199,0.188-0.482,0.285-0.852,0.285c-0.266,0-0.492-0.076-0.678-0.23
				c-0.188-0.15-0.4-0.379-0.643-0.682c-0.195-0.254-0.426-0.457-0.691-0.609c-0.268-0.152-0.627-0.227-1.084-0.227
				c-0.469,0-0.857,0.098-1.168,0.299c-0.31,0.199-0.465,0.447-0.465,0.744c0,0.273,0.113,0.496,0.34,0.67
				c0.229,0.176,0.535,0.32,0.924,0.434c0.385,0.113,0.916,0.252,1.596,0.416c0.803,0.197,1.459,0.432,1.969,0.703
				c0.51,0.272,0.897,0.594,1.16,0.965C311.609,752.162,311.74,752.584,311.74,753.059z"/>
			<path style="fill:#142279;" d="M314.391,744.701c-0.361,0-0.67-0.111-0.926-0.332c-0.258-0.221-0.385-0.535-0.385-0.941
				c0-0.367,0.131-0.668,0.393-0.906c0.264-0.238,0.57-0.357,0.918-0.357c0.336,0,0.633,0.107,0.893,0.324
				c0.26,0.215,0.389,0.527,0.389,0.939c0,0.4-0.127,0.711-0.381,0.936C315.039,744.588,314.738,744.701,314.391,744.701z
				 M315.672,747.379v7.494c0,0.52-0.123,0.912-0.369,1.178c-0.248,0.266-0.561,0.398-0.941,0.398c-0.381,0-0.689-0.135-0.926-0.408
				c-0.238-0.272-0.355-0.662-0.355-1.168v-7.418c0-0.512,0.117-0.898,0.355-1.158c0.236-0.26,0.545-0.391,0.926-0.391
				c0.381,0,0.693,0.131,0.941,0.391C315.549,746.557,315.672,746.918,315.672,747.379z"/>
			<path style="fill:#142279;" d="M327.031,747.807v7.531c0,0.861-0.092,1.604-0.277,2.225c-0.182,0.619-0.477,1.133-0.883,1.537
				c-0.404,0.404-0.936,0.707-1.59,0.902c-0.654,0.197-1.471,0.295-2.445,0.295c-0.893,0-1.691-0.125-2.395-0.375
				c-0.701-0.252-1.242-0.574-1.623-0.969c-0.381-0.397-0.57-0.803-0.57-1.221c0-0.316,0.108-0.576,0.322-0.773
				c0.215-0.201,0.477-0.301,0.779-0.301c0.379,0,0.713,0.168,0.998,0.504c0.139,0.17,0.281,0.344,0.432,0.518
				c0.148,0.176,0.314,0.324,0.494,0.447c0.18,0.123,0.396,0.215,0.65,0.275c0.252,0.059,0.545,0.09,0.873,0.09
				c0.672,0,1.193-0.094,1.563-0.281c0.371-0.185,0.631-0.447,0.779-0.783c0.148-0.334,0.236-0.693,0.262-1.078
				c0.025-0.383,0.043-0.998,0.057-1.848c-0.4,0.558-0.859,0.982-1.383,1.273c-0.521,0.291-1.145,0.438-1.865,0.438
				c-0.867,0-1.625-0.223-2.275-0.666c-0.648-0.443-1.148-1.063-1.496-1.861c-0.348-0.799-0.522-1.719-0.522-2.764
				c0-0.777,0.105-1.482,0.318-2.107c0.213-0.629,0.514-1.156,0.906-1.588c0.393-0.43,0.846-0.754,1.357-0.973
				c0.514-0.219,1.076-0.328,1.691-0.328c0.734,0,1.371,0.143,1.91,0.422c0.537,0.283,1.037,0.725,1.5,1.326v-0.352
				c0-0.449,0.109-0.797,0.332-1.045c0.223-0.246,0.508-0.371,0.855-0.371c0.5,0,0.832,0.164,0.996,0.49
				C326.949,746.723,327.031,747.193,327.031,747.807z M319.518,751.094c0,1.051,0.23,1.846,0.689,2.383
				c0.459,0.539,1.053,0.809,1.781,0.809c0.43,0,0.836-0.117,1.219-0.348c0.385-0.231,0.695-0.58,0.938-1.045
				c0.238-0.465,0.359-1.029,0.359-1.695c0-1.057-0.232-1.881-0.697-2.469c-0.467-0.588-1.078-0.883-1.838-0.883
				c-0.742,0-1.336,0.281-1.781,0.846C319.74,749.254,319.518,750.055,319.518,751.094z"/>
			<path style="fill:#142279;" d="M331.152,747.342v0.313c0.455-0.602,0.953-1.043,1.496-1.324c0.541-0.281,1.162-0.424,1.865-0.424
				c0.684,0,1.295,0.15,1.834,0.447c0.537,0.299,0.941,0.719,1.205,1.262c0.172,0.318,0.283,0.66,0.332,1.027
				c0.051,0.367,0.078,0.836,0.078,1.406v4.824c0,0.52-0.119,0.912-0.357,1.178c-0.236,0.266-0.545,0.398-0.926,0.398
				c-0.387,0-0.699-0.135-0.939-0.408c-0.242-0.272-0.361-0.662-0.361-1.168v-4.322c0-0.853-0.119-1.508-0.357-1.961
				c-0.236-0.451-0.709-0.68-1.42-0.68c-0.461,0-0.883,0.139-1.262,0.414c-0.381,0.275-0.66,0.654-0.836,1.135
				c-0.127,0.387-0.191,1.107-0.191,2.166v3.248c0,0.525-0.121,0.92-0.365,1.184c-0.242,0.262-0.559,0.393-0.943,0.393
				c-0.375,0-0.682-0.135-0.922-0.408c-0.24-0.272-0.361-0.662-0.361-1.168v-7.494c0-0.494,0.107-0.863,0.322-1.107
				c0.215-0.242,0.51-0.365,0.883-0.365c0.229,0,0.436,0.055,0.619,0.162c0.182,0.109,0.33,0.269,0.441,0.484
				C331.098,746.768,331.152,747.031,331.152,747.342z"/>
			<path style="fill:#142279;" d="M346.926,751.816h-5.07c0.006,0.588,0.125,1.107,0.355,1.557c0.233,0.449,0.539,0.789,0.922,1.016
				c0.383,0.229,0.805,0.342,1.268,0.342c0.31,0,0.594-0.035,0.852-0.108c0.254-0.074,0.504-0.188,0.744-0.344
				c0.24-0.154,0.461-0.32,0.666-0.498c0.201-0.178,0.465-0.42,0.787-0.723c0.133-0.113,0.322-0.172,0.57-0.172
				c0.266,0,0.48,0.074,0.646,0.221c0.164,0.146,0.246,0.35,0.246,0.617c0,0.234-0.092,0.506-0.275,0.82
				c-0.184,0.314-0.461,0.615-0.832,0.902c-0.371,0.289-0.834,0.527-1.395,0.717c-0.561,0.191-1.205,0.285-1.934,0.285
				c-1.666,0-2.961-0.475-3.885-1.424s-1.387-2.238-1.387-3.865c0-0.768,0.113-1.479,0.342-2.133
				c0.228-0.656,0.56-1.217,0.998-1.685c0.436-0.469,0.975-0.828,1.613-1.078c0.641-0.25,1.35-0.375,2.129-0.375
				c1.012,0,1.881,0.213,2.605,0.641c0.727,0.428,1.27,0.981,1.631,1.656c0.359,0.678,0.541,1.369,0.541,2.07
				c0,0.654-0.187,1.076-0.561,1.269C348.131,751.719,347.605,751.816,346.926,751.816z M341.855,750.344h4.701
				c-0.063-0.887-0.303-1.551-0.717-1.99c-0.416-0.441-0.961-0.66-1.639-0.66c-0.647,0-1.178,0.223-1.592,0.668
				C342.195,748.809,341.943,749.469,341.855,750.344z"/>
			<path style="fill:#142279;" d="M357.496,754.969v-0.258c-0.348,0.398-0.691,0.725-1.029,0.973
				c-0.34,0.252-0.707,0.441-1.102,0.57c-0.396,0.133-0.828,0.195-1.297,0.195c-0.621,0-1.195-0.131-1.725-0.393
				c-0.527-0.264-0.986-0.639-1.371-1.127c-0.387-0.486-0.68-1.059-0.879-1.719c-0.199-0.658-0.299-1.371-0.299-2.137
				c0-1.621,0.395-2.885,1.186-3.791c0.793-0.904,1.834-1.357,3.125-1.357c0.748,0,1.379,0.129,1.891,0.385
				c0.514,0.256,1.014,0.652,1.5,1.182v-3.826c0-0.533,0.107-0.934,0.318-1.207c0.213-0.271,0.516-0.408,0.908-0.408
				c0.393,0,0.693,0.125,0.906,0.375c0.213,0.252,0.318,0.619,0.318,1.107v11.436c0,0.494-0.113,0.863-0.342,1.111
				c-0.228,0.246-0.521,0.369-0.883,0.369c-0.355,0-0.648-0.127-0.879-0.383C357.611,755.809,357.496,755.443,357.496,754.969z
				 M352.396,751.16c0,0.703,0.109,1.301,0.328,1.795c0.217,0.494,0.518,0.865,0.898,1.115c0.379,0.25,0.793,0.377,1.242,0.377
				c0.457,0,0.873-0.119,1.25-0.358c0.377-0.236,0.678-0.602,0.902-1.092c0.225-0.49,0.336-1.105,0.336-1.838
				c0-0.691-0.111-1.285-0.336-1.783c-0.225-0.496-0.529-0.875-0.912-1.139c-0.385-0.262-0.803-0.393-1.26-0.393
				c-0.473,0-0.898,0.135-1.272,0.402c-0.373,0.27-0.664,0.654-0.869,1.158C352.498,749.91,352.396,750.494,352.396,751.16z"/>
			<path style="fill:#142279;" d="M368.094,743.533v3.959c0.488-0.506,0.984-0.894,1.492-1.162c0.506-0.27,1.133-0.404,1.881-0.404
				c0.861,0,1.615,0.205,2.266,0.611c0.648,0.41,1.15,1.002,1.51,1.777c0.357,0.775,0.537,1.695,0.537,2.76
				c0,0.785-0.1,1.504-0.299,2.16c-0.201,0.656-0.49,1.225-0.869,1.705c-0.381,0.48-0.842,0.854-1.383,1.117
				c-0.541,0.262-1.139,0.393-1.791,0.393c-0.398,0-0.773-0.047-1.125-0.143c-0.352-0.094-0.65-0.219-0.898-0.375
				c-0.246-0.154-0.457-0.314-0.631-0.478c-0.174-0.164-0.404-0.412-0.689-0.742v0.258c0,0.486-0.117,0.855-0.352,1.107
				c-0.232,0.25-0.531,0.373-0.893,0.373c-0.367,0-0.66-0.123-0.877-0.373c-0.219-0.252-0.328-0.621-0.328-1.107v-11.322
				c0-0.525,0.105-0.924,0.316-1.191c0.213-0.27,0.51-0.404,0.889-0.404c0.4,0,0.707,0.129,0.922,0.385
				C367.986,742.693,368.094,743.057,368.094,743.533z M368.219,751.236c0,1.031,0.234,1.824,0.707,2.377
				c0.471,0.555,1.09,0.834,1.857,0.834c0.65,0,1.213-0.283,1.686-0.852c0.471-0.566,0.707-1.379,0.707-2.435
				c0-0.684-0.098-1.273-0.295-1.768c-0.195-0.494-0.475-0.875-0.834-1.145c-0.361-0.267-0.783-0.402-1.264-0.402
				c-0.494,0-0.936,0.135-1.32,0.402c-0.387,0.27-0.691,0.658-0.912,1.168C368.328,749.926,368.219,750.533,368.219,751.236z"/>
			<path style="fill:#142279;" d="M379.141,756.773l0.236-0.58l-3.192-8.035c-0.195-0.461-0.295-0.799-0.295-1.008
				c0-0.221,0.059-0.426,0.172-0.615c0.115-0.191,0.272-0.344,0.471-0.457c0.199-0.115,0.406-0.172,0.621-0.172
				c0.373,0,0.656,0.119,0.846,0.357c0.191,0.236,0.357,0.576,0.504,1.02l2.193,6.383l2.08-5.935
				c0.164-0.481,0.315-0.858,0.447-1.131c0.133-0.271,0.273-0.455,0.422-0.549c0.148-0.096,0.359-0.144,0.633-0.144
				c0.197,0,0.385,0.053,0.564,0.158c0.18,0.104,0.32,0.244,0.418,0.422c0.098,0.178,0.148,0.363,0.148,0.561
				c-0.027,0.119-0.066,0.291-0.125,0.514c-0.057,0.221-0.127,0.447-0.209,0.674l-3.381,8.852c-0.291,0.779-0.576,1.389-0.855,1.832
				c-0.279,0.443-0.646,0.785-1.105,1.021c-0.461,0.238-1.078,0.357-1.857,0.357c-0.76,0-1.33-0.082-1.709-0.246
				c-0.381-0.166-0.57-0.467-0.57-0.904c0-0.297,0.09-0.527,0.271-0.688c0.18-0.162,0.447-0.244,0.801-0.244
				c0.141,0,0.277,0.02,0.41,0.059c0.164,0.037,0.307,0.057,0.426,0.057c0.297,0,0.533-0.043,0.703-0.133
				c0.172-0.088,0.324-0.242,0.461-0.461C378.807,757.519,378.963,757.197,379.141,756.773z"/>
			<path style="fill:#142279;" d="M416.703,746.131h0.619v-0.777c0-0.814,0.1-1.457,0.307-1.938
				c0.203-0.479,0.555-0.826,1.047-1.045c0.49-0.217,1.162-0.326,2.016-0.326c1.52,0,2.273,0.367,2.273,1.113
				c0,0.238-0.08,0.445-0.24,0.615c-0.154,0.17-0.344,0.256-0.559,0.256c-0.1,0-0.277-0.018-0.527-0.059
				c-0.236-0.033-0.451-0.057-0.623-0.057c-0.467,0-0.766,0.141-0.904,0.416c-0.127,0.275-0.195,0.668-0.195,1.184v0.617h0.633
				c0.99,0,1.48,0.297,1.48,0.896c0,0.418-0.127,0.69-0.393,0.805c-0.262,0.113-0.623,0.17-1.088,0.17h-0.633v6.871
				c0,0.512-0.121,0.9-0.369,1.168c-0.242,0.273-0.555,0.406-0.943,0.406c-0.367,0-0.67-0.133-0.918-0.406
				c-0.244-0.268-0.363-0.656-0.363-1.168v-6.871h-0.715c-0.389,0-0.682-0.084-0.893-0.262c-0.209-0.17-0.314-0.398-0.314-0.678
				C415.4,746.44,415.834,746.131,416.703,746.131"/>
			<path style="fill:#142279;" d="M425.193,752.705v2.168c0,0.523-0.133,0.92-0.375,1.18c-0.246,0.266-0.559,0.395-0.938,0.395
				c-0.381,0-0.688-0.131-0.926-0.4c-0.236-0.264-0.361-0.656-0.361-1.174v-7.223c0-1.166,0.42-1.748,1.262-1.748
				c0.434,0,0.742,0.135,0.934,0.408c0.189,0.273,0.295,0.674,0.316,1.207c0.309-0.533,0.625-0.934,0.949-1.207
				c0.332-0.273,0.762-0.408,1.309-0.408c0.549,0,1.072,0.135,1.586,0.408c0.516,0.273,0.772,0.637,0.772,1.084
				c0,0.315-0.111,0.58-0.326,0.781c-0.221,0.209-0.455,0.313-0.707,0.313c-0.1,0-0.33-0.063-0.691-0.18
				c-0.365-0.113-0.69-0.174-0.963-0.174c-0.381,0-0.693,0.103-0.932,0.299c-0.242,0.205-0.432,0.496-0.565,0.887
				c-0.129,0.394-0.219,0.865-0.273,1.404C425.215,751.266,425.193,751.928,425.193,752.705"/>
			<path style="fill:#142279;" d="M437.113,751.813h-5.074c0.01,0.588,0.125,1.111,0.355,1.559c0.234,0.447,0.539,0.787,0.924,1.018
				c0.385,0.227,0.805,0.34,1.27,0.34c0.31,0,0.592-0.033,0.85-0.111c0.254-0.07,0.504-0.186,0.744-0.342
				c0.242-0.152,0.461-0.318,0.664-0.5c0.203-0.174,0.467-0.416,0.791-0.719c0.135-0.113,0.324-0.174,0.568-0.174
				c0.268,0,0.48,0.074,0.648,0.223c0.166,0.146,0.244,0.35,0.244,0.617c0,0.234-0.09,0.508-0.268,0.818
				c-0.188,0.318-0.463,0.617-0.836,0.906c-0.375,0.285-0.84,0.527-1.398,0.715c-0.559,0.19-1.205,0.285-1.932,0.285
				c-1.67,0-2.963-0.473-3.887-1.422c-0.924-0.951-1.391-2.242-1.391-3.867c0-0.768,0.117-1.479,0.348-2.135
				c0.225-0.658,0.557-1.217,0.998-1.688c0.436-0.471,0.971-0.828,1.613-1.078c0.637-0.25,1.346-0.375,2.127-0.375
				c1.012,0,1.881,0.215,2.607,0.646c0.723,0.422,1.273,0.977,1.629,1.654c0.361,0.68,0.541,1.367,0.541,2.074
				c0,0.648-0.188,1.07-0.561,1.266C438.316,751.717,437.791,751.813,437.113,751.813 M432.039,750.338h4.701
				c-0.063-0.885-0.297-1.549-0.713-1.986c-0.418-0.441-0.959-0.66-1.641-0.66c-0.646,0-1.178,0.221-1.592,0.67
				C432.381,748.807,432.127,749.465,432.039,750.338"/>
			<path style="fill:#142279;" d="M447.9,751.813h-5.072c0.006,0.588,0.125,1.111,0.353,1.559c0.233,0.447,0.539,0.787,0.922,1.018
				c0.383,0.227,0.805,0.34,1.272,0.34c0.307,0,0.592-0.033,0.844-0.111c0.26-0.07,0.506-0.186,0.75-0.342
				c0.242-0.152,0.461-0.318,0.664-0.5c0.199-0.174,0.465-0.416,0.789-0.719c0.135-0.113,0.326-0.174,0.568-0.174
				c0.268,0,0.482,0.074,0.65,0.223c0.164,0.146,0.24,0.35,0.24,0.617c0,0.234-0.088,0.508-0.273,0.818
				c-0.178,0.318-0.455,0.617-0.83,0.906c-0.371,0.285-0.84,0.527-1.396,0.715c-0.557,0.19-1.207,0.285-1.934,0.285
				c-1.668,0-2.959-0.473-3.887-1.422c-0.924-0.951-1.389-2.242-1.389-3.867c0-0.768,0.115-1.479,0.348-2.135
				c0.227-0.658,0.559-1.217,0.996-1.688c0.436-0.471,0.973-0.828,1.613-1.078c0.639-0.25,1.352-0.375,2.129-0.375
				c1.01,0,1.879,0.215,2.613,0.646c0.721,0.422,1.266,0.977,1.621,1.654c0.359,0.68,0.545,1.367,0.545,2.074
				c0,0.648-0.191,1.07-0.56,1.266C449.102,751.717,448.576,751.813,447.9,751.813 M442.828,750.338h4.701
				c-0.065-0.885-0.305-1.549-0.715-1.986c-0.422-0.441-0.963-0.66-1.643-0.66c-0.646,0-1.176,0.221-1.594,0.67
				C443.166,748.807,442.912,749.465,442.828,750.338"/>
			<path style="fill:#142279;" d="M453.58,747.361v0.311c0.486-0.602,0.994-1.043,1.525-1.324c0.517-0.285,1.117-0.428,1.781-0.428
				c0.795,0,1.535,0.209,2.207,0.617c0.672,0.414,1.199,1.016,1.59,1.807c0.389,0.795,0.586,1.73,0.586,2.814
				c0,0.795-0.113,1.531-0.336,2.201c-0.225,0.668-0.537,1.227-0.93,1.68c-0.393,0.449-0.855,0.801-1.389,1.045
				c-0.543,0.242-1.111,0.363-1.728,0.363c-0.738,0-1.363-0.148-1.865-0.447c-0.502-0.291-0.982-0.732-1.441-1.305v3.893
				c0,1.135-0.416,1.709-1.244,1.709c-0.49,0-0.809-0.146-0.971-0.439c-0.152-0.299-0.234-0.723-0.234-1.291v-11.193
				c0-0.494,0.107-0.859,0.32-1.107c0.215-0.238,0.512-0.363,0.885-0.363c0.369,0,0.666,0.125,0.897,0.373
				C453.467,746.529,453.58,746.887,453.58,747.361 M458.664,751.129c0-0.685-0.105-1.273-0.315-1.764
				c-0.209-0.492-0.498-0.867-0.865-1.127c-0.367-0.264-0.783-0.396-1.232-0.396c-0.715,0-1.318,0.283-1.809,0.844
				c-0.492,0.567-0.74,1.395-0.74,2.492c0,1.027,0.244,1.834,0.736,2.406c0.486,0.574,1.086,0.859,1.813,0.859
				c0.428,0,0.83-0.127,1.197-0.373c0.371-0.252,0.664-0.627,0.883-1.127C458.553,752.441,458.664,751.836,458.664,751.129"/>
			<path style="fill:#142279;" d="M463.881,744.695c-0.363,0-0.67-0.115-0.924-0.336c-0.26-0.223-0.387-0.531-0.387-0.936
				c0-0.369,0.131-0.67,0.397-0.91c0.262-0.234,0.566-0.355,0.914-0.355c0.34,0,0.635,0.105,0.892,0.318
				c0.26,0.219,0.391,0.535,0.391,0.947c0,0.398-0.127,0.711-0.377,0.936C464.533,744.58,464.232,744.695,463.881,744.695
				 M465.164,747.373v7.502c0,0.516-0.123,0.908-0.369,1.172c-0.25,0.27-0.561,0.4-0.941,0.4c-0.381,0-0.685-0.133-0.928-0.406
				c-0.234-0.275-0.355-0.664-0.355-1.166v-7.428c0-0.51,0.121-0.895,0.355-1.154c0.242-0.264,0.547-0.391,0.928-0.391
				c0.381,0,0.691,0.127,0.941,0.391C465.041,746.553,465.164,746.916,465.164,747.373"/>
			<path style="fill:#142279;" d="M473.523,755.264l-2.283-3.766l-1.408,1.328v2.066c0,0.498-0.133,0.881-0.397,1.148
				c-0.258,0.273-0.566,0.406-0.906,0.406c-0.398,0-0.715-0.131-0.941-0.4c-0.227-0.264-0.344-0.656-0.344-1.174V743.81
				c0-0.574,0.115-1.012,0.332-1.314c0.223-0.305,0.545-0.451,0.953-0.451c0.398,0,0.713,0.137,0.949,0.41
				c0.234,0.272,0.354,0.674,0.354,1.203v6.293l2.916-3.063c0.361-0.377,0.633-0.641,0.826-0.779c0.19-0.139,0.42-0.207,0.69-0.207
				c0.326,0,0.594,0.104,0.816,0.309c0.211,0.205,0.32,0.465,0.32,0.773c0,0.379-0.354,0.889-1.055,1.522l-1.377,1.262l2.658,4.184
				c0.193,0.313,0.34,0.543,0.424,0.705c0.084,0.16,0.131,0.32,0.131,0.463c0,0.412-0.115,0.734-0.342,0.975
				c-0.225,0.236-0.523,0.354-0.885,0.354c-0.316,0-0.564-0.08-0.734-0.256C474.051,756.019,473.814,755.709,473.523,755.264"/>
			<path style="fill:#142279;" d="M479.16,756.447c-0.393,0-0.729-0.125-1.014-0.381c-0.285-0.248-0.43-0.606-0.43-1.064
				c0-0.385,0.139-0.719,0.41-0.994c0.275-0.279,0.607-0.42,1.008-0.42c0.398,0,0.736,0.141,1.023,0.412
				c0.279,0.275,0.422,0.613,0.422,1.002c0,0.453-0.143,0.808-0.422,1.06C479.871,756.322,479.539,756.447,479.16,756.447"/>
			<path style="fill:#142279;" d="M492.059,753.238c0,0.32-0.098,0.668-0.291,1.033c-0.191,0.371-0.488,0.719-0.887,1.051
				c-0.395,0.332-0.891,0.602-1.494,0.803c-0.602,0.203-1.281,0.307-2.031,0.307c-1.605,0-2.858-0.469-3.758-1.4
				c-0.895-0.936-1.346-2.19-1.346-3.76c0-1.068,0.205-2.006,0.619-2.824c0.408-0.815,1.004-1.447,1.781-1.895
				c0.779-0.447,1.717-0.67,2.795-0.67c0.674,0,1.287,0.098,1.852,0.295c0.561,0.195,1.033,0.451,1.426,0.76
				c0.387,0.315,0.686,0.643,0.889,0.992c0.207,0.352,0.309,0.68,0.309,0.986c0,0.309-0.113,0.572-0.344,0.787
				c-0.234,0.215-0.516,0.324-0.838,0.324c-0.219,0-0.398-0.057-0.541-0.166c-0.145-0.111-0.305-0.289-0.479-0.541
				c-0.318-0.479-0.646-0.842-0.996-1.08c-0.344-0.242-0.781-0.361-1.314-0.361c-0.762,0-1.383,0.297-1.854,0.896
				c-0.467,0.596-0.703,1.42-0.703,2.455c0,0.488,0.063,0.939,0.184,1.348c0.117,0.406,0.291,0.756,0.52,1.043
				c0.23,0.287,0.504,0.506,0.826,0.654c0.324,0.154,0.682,0.227,1.065,0.227c0.521,0,0.967-0.121,1.336-0.361
				c0.377-0.24,0.703-0.607,0.986-1.102c0.158-0.291,0.328-0.518,0.51-0.684c0.182-0.164,0.408-0.25,0.676-0.25
				c0.316,0,0.58,0.123,0.785,0.363C491.951,752.709,492.059,752.967,492.059,753.238"/>
			<path style="fill:#142279;" d="M503.248,751.178c0,0.77-0.121,1.484-0.355,2.139c-0.246,0.652-0.592,1.213-1.049,1.678
				c-0.455,0.469-1.002,0.828-1.633,1.08c-0.639,0.248-1.35,0.375-2.139,0.375c-0.785,0-1.492-0.127-2.121-0.383
				c-0.623-0.248-1.17-0.613-1.625-1.082c-0.461-0.477-0.809-1.033-1.053-1.676c-0.228-0.644-0.35-1.355-0.35-2.131
				c0-0.787,0.123-1.506,0.357-2.158c0.242-0.654,0.59-1.213,1.039-1.674c0.451-0.461,0.994-0.816,1.631-1.07
				c0.644-0.248,1.35-0.373,2.121-0.373c0.785,0,1.498,0.125,2.139,0.381c0.639,0.252,1.184,0.615,1.645,1.08
				c0.457,0.475,0.803,1.029,1.039,1.672C503.129,749.685,503.248,750.394,503.248,751.178 M500.645,751.178
				c0-1.059-0.234-1.881-0.697-2.469c-0.463-0.596-1.09-0.889-1.875-0.889c-0.508,0-0.955,0.133-1.342,0.394
				c-0.387,0.262-0.682,0.648-0.891,1.164c-0.209,0.514-0.314,1.113-0.314,1.799c0,0.678,0.102,1.268,0.309,1.773
				c0.209,0.51,0.502,0.897,0.887,1.166c0.385,0.266,0.834,0.404,1.352,0.404c0.785,0,1.412-0.297,1.875-0.893
				C500.41,753.039,500.645,752.219,500.645,751.178"/>
			<path style="fill:#142279;" d="M513.141,751.367v3.447c0,0.547-0.121,0.951-0.369,1.227c-0.25,0.273-0.572,0.408-0.978,0.408
				c-0.393,0-0.713-0.135-0.951-0.408c-0.246-0.275-0.371-0.68-0.371-1.227v-4.131c0-0.654-0.021-1.162-0.064-1.525
				c-0.045-0.354-0.168-0.654-0.361-0.883c-0.197-0.234-0.51-0.352-0.932-0.352c-0.85,0-1.406,0.291-1.676,0.881
				c-0.268,0.576-0.406,1.414-0.406,2.508v3.502c0,0.537-0.123,0.945-0.361,1.223c-0.25,0.273-0.568,0.412-0.965,0.412
				c-0.396,0-0.717-0.139-0.967-0.412c-0.252-0.277-0.377-0.685-0.377-1.223v-7.42c0-0.488,0.111-0.859,0.336-1.111
				c0.228-0.256,0.525-0.381,0.889-0.381c0.358,0,0.652,0.123,0.893,0.356c0.236,0.238,0.354,0.566,0.354,0.984v0.244
				c0.453-0.535,0.936-0.932,1.445-1.18c0.516-0.26,1.082-0.387,1.713-0.387c0.65,0,1.211,0.131,1.678,0.391
				c0.469,0.26,0.853,0.654,1.16,1.176c0.44-0.527,0.908-0.922,1.41-1.18c0.5-0.258,1.053-0.387,1.662-0.387
				c0.705,0,1.32,0.143,1.834,0.42c0.51,0.277,0.893,0.68,1.146,1.195c0.221,0.473,0.33,1.209,0.33,2.217v5.063
				c0,0.547-0.121,0.951-0.367,1.227c-0.246,0.273-0.574,0.408-0.979,0.408c-0.394,0-0.715-0.139-0.965-0.412
				c-0.25-0.277-0.377-0.685-0.377-1.223v-4.361c0-0.559-0.023-1.004-0.068-1.338c-0.047-0.338-0.178-0.621-0.383-0.848
				c-0.213-0.227-0.531-0.344-0.953-0.344c-0.342,0-0.666,0.107-0.975,0.309c-0.307,0.197-0.547,0.477-0.721,0.813
				C513.238,749.482,513.141,750.258,513.141,751.367"/>
			<path style="fill:#142279;" d="M392.435,750.549c-0.002-0.004-0.002-0.01-0.002-0.018
				C392.434,750.539,392.434,750.545,392.435,750.549z"/>
			<path style="fill:#142279;" d="M392.566,751.379c0.002,0,0.002,0,0.002,0c-0.049-0.236-0.088-0.471-0.117-0.703
				C392.48,750.91,392.52,751.144,392.566,751.379z"/>
			<path style="fill:#142279;" d="M393.424,753.785c-0.006-0.01-0.01-0.022-0.016-0.033
				C393.414,753.764,393.418,753.775,393.424,753.785z"/>
			<path style="fill:#142279;" d="M393.342,753.625c-0.022-0.045-0.043-0.09-0.065-0.135
				C393.299,753.537,393.32,753.58,393.342,753.625z"/>
			<path style="fill:#142279;" d="M392.807,752.305c0.127,0.4,0.281,0.789,0.457,1.158c-0.18-0.377-0.33-0.766-0.453-1.158
				C392.81,752.305,392.809,752.305,392.807,752.305z"/>
			<path style="fill:#142279;" d="M402.473,740.613c0.502,0,0.871,0.039,1.295,0.111l0.121-0.764c0,0-1.172-0.359-2.711-0.234
				l-0.121-0.414c0.479-0.102,0.838-0.527,0.838-1.035c0-0.582-0.475-1.053-1.057-1.053c-0.584,0-1.057,0.471-1.057,1.053
				c0,0.508,0.359,0.934,0.836,1.035l0.135,0.463c-1.635,0.225-2.936,0.861-2.936,0.861l0.23,0.705
				c0.988-0.328,1.846-0.529,2.623-0.613C401.432,740.648,402.006,740.613,402.473,740.613z"/>
			<path style="fill:#142279;" d="M393.404,744.471l0.006-0.008c0.039-0.049,0.076-0.096,0.113-0.143l-0.313-0.225l-0.488-0.357
				c-0.027,0.039-0.795,0.744-1.4,2.049c-0.025-0.041-0.057-0.082-0.09-0.119c-0.182-0.199-0.436-0.301-0.758-0.295
				c-0.004,0-0.01,0-0.016,0c-0.199,0-0.336-0.066-0.426-0.146c0.088-0.113,0.143-0.256,0.143-0.414c0-0.367-0.301-0.668-0.67-0.668
				c-0.369,0-0.668,0.301-0.668,0.668c0,0.371,0.299,0.67,0.668,0.67c0.059,0,0.113-0.01,0.168-0.022
				c0.164,0.184,0.424,0.342,0.807,0.334c0.197-0.002,0.342,0.049,0.438,0.156c0.111,0.121,0.148,0.295,0.16,0.428
				c-0.002,0.002-0.002,0.004-0.004,0.004c-0.435,1.19-0.31,2.67-0.31,2.67l1.057,0.043c0.022-0.539,0.1-1.482,0.373-2.231
				C392.719,745.416,393.379,744.51,393.404,744.471z"/>
			<path style="fill:#142279;" d="M411.672,741.496c-0.367,0-0.668,0.299-0.668,0.67c0,0.057,0.008,0.111,0.023,0.164
				c-0.184,0.166-0.344,0.428-0.338,0.811c0.004,0.197-0.047,0.34-0.154,0.438c-0.084,0.074-0.191,0.115-0.295,0.141
				c-0.787-1.104-1.756-1.775-1.756-1.775l-0.76,0.813c0.574,0.521,1.16,1.176,1.729,1.99c0.395,0.564,0.799,1.291,1.137,2.016
				l1.023-0.486c0,0-0.467-1.156-1.125-2.191c0.113-0.041,0.229-0.103,0.33-0.193c0.201-0.18,0.299-0.436,0.293-0.758
				c-0.002-0.207,0.066-0.348,0.148-0.441c0.115,0.088,0.258,0.143,0.412,0.143c0.371,0,0.67-0.299,0.67-0.668
				C412.342,741.795,412.043,741.496,411.672,741.496z"/>
			<path style="fill:#142279;" d="M409.016,750.699c-1.41,0.686-3.729,1.594-6.781,2.02c-1.199,0.166-2.359,0.227-3.43,0.227
				c-1.391,0-2.619-0.104-3.563-0.223c-1.076-0.135-1.916-0.301-2.432-0.418c0.123,0.393,0.274,0.781,0.453,1.158
				c0.004,0.01,0.008,0.021,0.014,0.027c0.022,0.045,0.043,0.09,0.065,0.135c0.021,0.043,0.043,0.086,0.066,0.127
				c0.006,0.012,0.01,0.023,0.016,0.033c0.303,0.57,0.668,1.094,1.082,1.549c1.439,1.574,2.906,1.824,2.92,1.826l0.023,0.002
				l0.022,0.008c0.014,0.006,1.314,0.426,3.291,0.426c1.945,0,3.855-0.393,5.674-1.168c1.348-0.689,2.623-1.736,3.254-2.67
				c0.488-0.723,0.842-1.492,1.051-2.293c0.111-0.426,0.199-1.107,0.146-1.826C410.49,749.906,409.863,750.285,409.016,750.699z"/>
			<path style="fill:#142279;" d="M393.857,744.805c-0.041,0.06-0.652,0.926-1.135,2.254c-0.361,0.994-0.346,2.443-0.346,2.459
				v0.004c0,0.34,0.019,0.676,0.057,1.01c0,0.008,0,0.014,0.002,0.018c0.004,0.043,0.012,0.084,0.016,0.127
				c0.029,0.232,0.068,0.467,0.117,0.703c0.701,0.178,4.879,1.152,9.549,0.502c2.928-0.408,5.15-1.273,6.5-1.928
				c1.121-0.543,1.842-1.035,2.119-1.238c-0.277-1.027-1.041-2.641-1.742-3.646c-2.006-2.865-4.168-3.6-5.277-3.783
				c-0.424-0.068-0.764-0.109-1.244-0.109c-0.447,0-1.002,0.037-1.742,0.115c-0.744,0.076-1.572,0.271-2.533,0.596
				c-1.348,0.451-2.566,1.158-3.527,2.047l-0.031,0.031C394.496,744.096,394.199,744.371,393.857,744.805z M406.127,744.139
				c0.961,0,1.744,0.781,1.744,1.742c0,0.963-0.783,1.744-1.744,1.744c-0.961,0-1.742-0.781-1.742-1.744
				C404.385,744.92,405.166,744.139,406.127,744.139z M397.885,744.068c1.557,0,2.818,1.262,2.818,2.818
				c0,1.555-1.262,2.814-2.818,2.814c-1.555,0-2.815-1.26-2.815-2.814C395.07,745.33,396.33,744.068,397.885,744.068z"/>
		</g>
	</g>
	
		<text transform="matrix(1 0 0 1 258.5666 419.9845)" style="fill:#3D8B8E; font-family:'Railway'; font-size:65.4524px; letter-spacing:4;">AVATARS</text>
</g>
<g id="Objects">
	<g>
		<g>
			<g>
				<circle style="fill:#F78B8E;" cx="161.823" cy="214.82" r="113.816"/>
				<g>
					<defs>
						<circle id="SVGID_1_" cx="161.823" cy="214.82" r="113.816"/>
					</defs>
					<clipPath id="SVGID_00000070796664189857781770000013133476737976936864_">
						<use xlink:href="#SVGID_1_"  style="overflow:visible;"/>
					</clipPath>
					<g style="clip-path:url(#SVGID_00000070796664189857781770000013133476737976936864_);">
						<path style="fill:#9C4A27;" d="M208.852,248.638c-13.438-22.923,13.437-48.216,0.79-90.109s-44.264-38.995-47.818-38.995
							c-3.555,0-35.172-2.898-47.819,38.995c-12.646,41.893,14.228,67.186,0.791,90.109c-13.438,22.922,3.161,32.407,30.826,33.198
							c6.473,0.185,11.808,0.239,16.202,0.214c4.395,0.025,9.729-0.029,16.201-0.214
							C205.689,281.045,222.288,271.56,208.852,248.638z"/>
						<path style="fill:#FFD3AB;" d="M240.3,291.629c-1.055-31.091-5.797-35.57-22.659-38.543
							c-16.862-2.974-38.995,10.876-42.157,0.865c-3.161-10.011,0-27.138,0-27.138h-27.321c0,0,3.162,17.127,0,27.138
							c-3.161,10.012-25.295-3.838-42.156-0.865c-16.862,2.973-21.605,7.452-22.659,38.543c-1.054,31.09,3.952,39.521,3.952,39.521
							h149.049C236.348,331.15,241.354,322.719,240.3,291.629z"/>
						<path style="fill:#81C7CC;" d="M216.852,300.707c2.225-17.318,7.265-32.616,13.625-43.408
							c-3.203-2.126-7.383-3.251-12.836-4.213c-9.817-1.732-21.416,2.236-30.022,3.881c-1.874,19.293-12.708,34.091-25.795,34.091
							c-13.088,0-23.922-14.799-25.796-34.091c-8.606-1.645-20.204-5.613-30.021-3.881c-5.454,0.961-9.634,2.087-12.836,4.213
							c6.36,10.792,11.398,26.09,13.625,43.408c1.396,10.865,2.153,30.443,2.153,30.443h105.749
							C214.697,331.15,215.456,311.572,216.852,300.707z"/>
						<path style="fill:#E4BC99;" d="M168.268,242.579c2.083-2.206,4.107-3.952,5.99-5.337c0.378-5.826,1.226-10.429,1.226-10.429
							h-27.321c0,0,3.162,17.127,0,27.138c-1.135,3.594-4.722,4.106-9.625,3.433C154.869,263.424,160.605,250.691,168.268,242.579z"
							/>
						<g>
							<g>
								<path style="fill:#E4BC99;" d="M132.641,179.07c0,0-12.009-11.048-17.29,0c-5.282,11.048,14.89,30.736,21.133,27.376
									C142.727,203.086,132.641,179.07,132.641,179.07z"/>
								<path style="fill:#E4BC99;" d="M191.007,179.07c0,0,12.008-11.048,17.29,0c5.282,11.048-14.89,30.736-21.133,27.376
									C180.921,203.086,191.007,179.07,191.007,179.07z"/>
							</g>
							<path style="fill:#FFD3AB;" d="M196.77,156.498c-0.961-29.779-29.523-29.806-34.946-29.806
								c-5.423,0-33.985,0.027-34.946,29.806c-0.961,29.78,0.481,51.393,6.725,60.997c6.179,9.507,20.934,20.868,28.222,20.868
								c7.289,0,22.044-11.361,28.222-20.868C196.288,207.89,197.73,186.278,196.77,156.498z"/>
						</g>
						<g>
							<path style="fill:#EA4152;" d="M170.895,214.316c0,0-6.664,1.915-9.071,1.915c-2.406,0-9.071-1.915-9.071-1.915
								c-1.082,4.688,6.694,5.734,9.071,5.734C164.2,220.05,171.977,219.004,170.895,214.316z"/>
							<path style="fill:#FF5C66;" d="M167.866,211.4c-3.207-2.939-4.999-2.015-6.007-1.304c-0.013,0.009-0.024,0.021-0.036,0.03
								c-0.012-0.009-0.022-0.021-0.035-0.03c-1.008-0.711-2.801-1.636-6.008,1.304c-3.206,2.94-5.345,2.428-5.345,2.428
								s5.347,2.986,7.952,1.581c2.605-1.404,2.328,0.065,3.436,0.065c1.108,0,0.83-1.47,3.436-0.065
								c2.606,1.405,7.952-1.581,7.952-1.581S171.073,214.34,167.866,211.4z"/>
							<path style="fill:#FFFFFF;" d="M157.875,215.62c0.181-0.055,0.352-0.124,0.513-0.21c2.605-1.404,2.328-0.594,3.436-0.594
								c1.108,0,0.83-0.81,3.436,0.594c0.161,0.086,0.333,0.156,0.513,0.211c-1.531,0.338-3.042,0.61-3.948,0.61
								C160.917,216.23,159.406,215.958,157.875,215.62z"/>
						</g>
						<path style="fill:#E0F4E5;" d="M161.823,302.652c20.809,0,37.677-20.879,37.677-46.635c0-0.572-0.019-1.139-0.034-1.706
							c-4.234,0.906-8.297,1.978-11.848,2.656c-1.874,19.293-12.708,34.091-25.795,34.091c-13.088,0-23.922-14.799-25.796-34.091
							c-3.55-0.679-7.613-1.75-11.847-2.655c-0.017,0.566-0.034,1.133-0.034,1.705C124.146,281.772,141.015,302.652,161.823,302.652
							z"/>
						<g>
							<path style="fill:#E0F4E5;" d="M92.972,257.299c0,0-4.622-3.04-8.048,1.659c-3.425,4.698,4.479,6.279,6.06,6.279
								c0,0-5.797,3.03-4.742,6.455c1.054,3.425,8.694,2.502,8.694,2.502s-4.634,4.029-2.185,7.482
								c2.448,3.453,6.818,1.806,6.818,1.806s-5.343,5.259-2.182,8.42c3.162,3.162,7.763-0.227,7.763-0.227
								s0.852-13.003-4.418-23.015C95.463,258.65,92.972,257.299,92.972,257.299z"/>
							<path style="fill:#E0F4E5;" d="M230.674,257.299c0,0,4.624-3.04,8.048,1.659c3.427,4.698-4.479,6.279-6.059,6.279
								c0,0,5.796,3.03,4.742,6.455c-1.055,3.425-8.694,2.502-8.694,2.502s4.633,4.029,2.185,7.482
								c-2.449,3.453-6.818,1.806-6.818,1.806s5.343,5.259,2.182,8.42c-3.162,3.162-7.764-0.227-7.764-0.227
								s-0.852-13.003,4.419-23.015C228.184,258.65,230.674,257.299,230.674,257.299z"/>
						</g>
						<path style="fill:#B0542C;" d="M161.823,123.072c-53.212,0-35.353,59.455-35.353,59.455s5.062-22.417,9.277-25.843
							c4.216-3.425,15.809-6.851,23.187,2.107c1.018,1.237,1.974,2.43,2.889,3.58c5.709,7.176,12.819,13.04,18.321,16.708
							c7.114,4.743,17.031,3.447,17.031,3.447S215.036,123.072,161.823,123.072z"/>
						<path style="fill:#E4BC99;" d="M168.827,198.446c0,0-3.297,4.486-7.004,4.486c-3.706,0-7.004-4.486-7.004-4.486
							s0.895,6.323,7.004,6.323C167.933,204.769,168.827,198.446,168.827,198.446z"/>
					</g>
				</g>
			</g>
			<g>
				<path style="fill:#B6D1BB;" d="M513.816,214.82c0,62.859-50.957,113.816-113.815,113.816
					c-62.859,0-113.817-50.957-113.817-113.816s50.958-113.816,113.817-113.816C462.859,101.004,513.816,151.961,513.816,214.82z"/>
				<g>
					<defs>
						<path id="SVGID_00000066475486145670886140000013038879155943404963_" d="M513.816,214.82
							c0,62.859-50.957,113.816-113.815,113.816c-62.859,0-113.817-50.957-113.817-113.816s50.958-113.816,113.817-113.816
							C462.859,101.004,513.816,151.961,513.816,214.82z"/>
					</defs>
					<clipPath id="SVGID_00000143613367822256095150000009809142384465287303_">
						<use xlink:href="#SVGID_00000066475486145670886140000013038879155943404963_"  style="overflow:visible;"/>
					</clipPath>
					<g style="clip-path:url(#SVGID_00000143613367822256095150000009809142384465287303_);">
						<path style="fill:#642D26;" d="M451.646,172.426c-12.795-48.328-39.441-48.08-39.441-48.08h-24.41
							c0,0-26.646-0.248-39.44,48.08c-12.795,48.328,6.27,49.354,19.72,52.675c9.877,2.439,27.416,2.721,31.927,2.721
							c4.511,0,22.048-0.282,31.925-2.721C445.375,221.78,464.439,220.754,451.646,172.426z"/>
						<g>
							<g>
								<path style="fill:#FFD3AB;" d="M478.477,291.629c-1.055-31.091-5.797-35.57-22.66-38.543
									c-16.861-2.974-38.994,10.876-42.156,0.865c-3.16-10.011,0-27.138,0-27.138h-27.32c0,0,3.161,17.127,0,27.138
									c-3.162,10.012-25.295-3.838-42.157-0.865c-16.862,2.973-21.604,7.452-22.658,38.543
									c-1.055,31.09,3.951,39.521,3.951,39.521h149.048C474.523,331.15,479.529,322.719,478.477,291.629z"/>
								<path style="fill:#E4BC99;" d="M406.443,242.579c2.084-2.206,4.107-3.952,5.992-5.337
									c0.377-5.826,1.225-10.429,1.225-10.429h-27.32c0,0,3.161,17.127,0,27.138c-1.136,3.594-4.723,4.106-9.626,3.433
									C393.047,263.424,398.783,250.691,406.443,242.579z"/>
								<path style="fill:#3D8454;" d="M478.477,291.629c-1.055-31.091-5.797-35.57-22.66-38.543
									c-10.467-1.846-22.961,2.789-31.693,4.177c-5.639,25.64-18.457,43.809-24.122,43.809c-5.668,0-18.485-18.17-24.125-43.81
									c-8.731-1.387-21.226-6.022-31.693-4.176c-16.862,2.973-21.604,7.452-22.658,38.543c-1.055,31.09,3.951,39.521,3.951,39.521
									h149.048C474.523,331.15,479.529,322.719,478.477,291.629z"/>
								<path style="fill:#D6B554;" d="M362.471,266.555c-4.215,6.06-3.161,9.221-1.58,9.485c1.58,0.264,12.119,1.667,13.173,2.941
									c1.055,1.275-8.694,8.499-5.269,12.922c3.424,4.424,20.046,8.905,30.705,9.167c0.116,0.003,0.22-0.009,0.327-0.016
									c-5.749-0.353-18.363-18.401-23.948-43.782c-0.168-0.009-0.338-0.02-0.502-0.012
									C375.377,257.262,366.686,260.494,362.471,266.555z"/>
								<path style="fill:#D6B554;" d="M400.175,301.055c0.106,0.007,0.211,0.019,0.326,0.016
									c10.659-0.263,27.278-4.743,30.706-9.167c3.424-4.423-6.324-11.648-5.27-12.922c1.053-1.274,11.592-2.677,13.172-2.941
									c1.582-0.264,2.637-3.425-1.58-9.485c-4.217-6.061-12.906-9.293-12.906-9.293c-0.164-0.008-0.334,0.003-0.502,0.012
									C418.537,282.655,405.922,300.702,400.175,301.055z"/>
								<path style="fill:#EFB554;" d="M403.426,309.237c0,1.892-1.533,3.426-3.425,3.426c-1.892,0-3.426-1.534-3.426-3.426
									s1.534-3.425,3.426-3.425C401.893,305.812,403.426,307.346,403.426,309.237z"/>
								<path style="fill:#EFB554;" d="M403.426,321.885c0,1.892-1.533,3.426-3.425,3.426c-1.892,0-3.426-1.534-3.426-3.426
									s1.534-3.425,3.426-3.425C401.893,318.46,403.426,319.993,403.426,321.885z"/>
							</g>
							<g>
								<g>
									<path style="fill:#E4BC99;" d="M370.817,179.07c0,0-12.008-11.048-17.29,0c-5.282,11.048,14.89,30.736,21.133,27.376
										C380.903,203.086,370.817,179.07,370.817,179.07z"/>
									<path style="fill:#E4BC99;" d="M429.184,179.07c0,0,12.008-11.048,17.289,0c5.283,11.048-14.889,30.736-21.131,27.376
										C419.098,203.086,429.184,179.07,429.184,179.07z"/>
								</g>
								<path style="fill:#FFD3AB;" d="M434.945,156.498c-0.961-29.779-29.521-29.806-34.944-29.806
									c-5.424,0-33.986,0.027-34.947,29.806c-0.961,29.78,0.482,51.393,6.725,60.997c6.18,9.507,20.934,20.868,28.223,20.868
									c7.288,0,22.042-11.361,28.222-20.868C434.465,207.89,435.906,186.278,434.945,156.498z"/>
							</g>
							<g>
								<path style="fill:#FFFFFF;" d="M400.001,217.811c-1.933,0-4.262-0.892-5.757-1.762c1.434,0.17,3.304,0.279,5.757,0.279
									c2.452,0,4.321-0.109,5.755-0.279C404.26,216.92,401.934,217.811,400.001,217.811z"/>
								<g>
									<path style="fill:#FFA19B;" d="M407.174,214.946c-0.674,0.959-4.348,2.865-7.173,2.865c-2.826,0-6.502-1.906-7.173-2.865
										c-0.692-0.988-1.384-0.396-1.384-0.396s-0.771,7.423,8.557,7.423c9.327,0,8.556-7.423,8.556-7.423
										S407.865,213.958,407.174,214.946z"/>
									<path style="fill:#FFB3A2;" d="M409.939,214.338c-0.197-0.72-1.777-0.52-4.742-2.321c-1.979-1.202-4.041-0.477-5.196,0.137
										c-1.155-0.614-3.218-1.339-5.197-0.137c-2.964,1.801-4.545,1.601-4.742,2.321c-0.198,0.72,1.501,1.991,9.94,1.991
										C408.438,216.329,410.139,215.058,409.939,214.338z"/>
								</g>
							</g>
							<path style="fill:#E4BC99;" d="M407.004,200.027c0,0-3.297,4.485-7.003,4.485c-3.707,0-7.005-4.485-7.005-4.485
								s0.895,6.323,7.005,6.323C406.109,206.35,407.004,200.027,407.004,200.027z"/>
							<path style="fill:#3E656A;" d="M436.67,172.462c-0.816-0.179-1.625,0.339-1.805,1.157c-0.004,0.02-0.412,1.687-1.854,2.621
								c-0.146-0.194-0.303-0.387-0.478-0.572c-2.133-2.242-6.076-3.242-12.791-3.242c-8.18,0-11.846,2.799-13.43,6.748
								c-1.935-0.708-4.078-1.083-6.311-1.083c-2.234,0-4.378,0.375-6.312,1.083c-1.584-3.949-5.251-6.748-13.432-6.748
								c-6.714,0-10.659,1-12.791,3.242c-0.177,0.186-0.333,0.379-0.48,0.574c-1.42-0.914-1.829-2.528-1.854-2.632
								c-0.183-0.813-0.986-1.328-1.803-1.148c-0.818,0.178-1.336,0.986-1.157,1.804c0.032,0.149,0.741,3.227,3.587,4.776
								c-0.319,1.559-0.234,3.264-0.147,5.024c0.042,0.844,0.087,1.715,0.087,2.593c0,7.621,4.762,11.326,14.558,11.326
								s14.558-3.705,14.558-11.326c0-1.56-0.081-3.095-0.325-4.547c1.663-0.642,3.567-0.989,5.511-0.989
								c1.942,0,3.847,0.347,5.511,0.989c-0.244,1.453-0.326,2.987-0.326,4.547c0,7.621,4.762,11.326,14.557,11.326
								c9.797,0,14.559-3.705,14.559-11.326c0-0.878,0.045-1.749,0.086-2.593c0.09-1.76,0.174-3.466-0.145-5.024
								c2.846-1.549,3.553-4.628,3.584-4.776C438.006,173.448,437.488,172.64,436.67,172.462z M380.258,194.954
								c-10.131,0-11.527-3.987-11.527-8.294c0-0.954-0.045-1.864-0.089-2.744c-0.15-2.995-0.181-4.893,1.022-6.159
								c1.471-1.546,4.936-2.298,10.594-2.298c9.69,0,11.526,3.937,11.526,11.201C391.784,190.967,390.388,194.954,380.258,194.954z
								 M431.359,183.915c-0.043,0.88-0.09,1.791-0.09,2.744c0,4.308-1.397,8.294-11.527,8.294c-10.129,0-11.525-3.987-11.525-8.294
								c0-7.264,1.838-11.201,11.525-11.201c5.658,0,9.123,0.752,10.596,2.298C431.541,179.023,431.51,180.921,431.359,183.915z"/>
						</g>
						<path style="fill:#74342C;" d="M437.961,155.544c-1.496-15.719-9.715-32.471-37.96-32.471
							c-28.246,0-36.466,16.752-37.962,32.471c0,0-0.095,14.767,0.194,18.723c0.405,5.548,23.308-0.016,32.266-9.237
							c2.941-3.027,4.6-6.223,5.506-9.152c0.91,2.92,2.565,6.103,5.495,9.118c8.959,9.222,31.861,14.786,32.266,9.238
							C438.055,170.283,437.961,155.544,437.961,155.544z"/>
					</g>
				</g>
			</g>
			<g>
				<path style="fill:#3E4379;" d="M751.992,214.82c0,62.859-50.957,113.816-113.815,113.816
					c-62.861,0-113.816-50.957-113.816-113.816s50.955-113.816,113.816-113.816C701.035,101.004,751.992,151.961,751.992,214.82z"/>
				<g>
					<defs>
						<path id="SVGID_00000097485176230596300610000009459723881636456321_" d="M751.992,214.82
							c0,62.859-50.957,113.816-113.815,113.816c-62.861,0-113.816-50.957-113.816-113.816s50.955-113.816,113.816-113.816
							C701.035,101.004,751.992,151.961,751.992,214.82z"/>
					</defs>
					<clipPath id="SVGID_00000120558597461828942380000003013321805925002927_">
						<use xlink:href="#SVGID_00000097485176230596300610000009459723881636456321_"  style="overflow:visible;"/>
					</clipPath>
					<g style="clip-path:url(#SVGID_00000120558597461828942380000003013321805925002927_);">
						<path style="fill:#C98A28;" d="M693.572,278.851c0.397-7.509,16.205-15.809,13.438-30.432
							c-2.766-14.623-20.945-6.324-26.084-13.438c-5.137-7.114,5.93-12.646,12.252-20.946c6.324-8.299,3.162-21.737-1.58-31.222
							c-4.742-9.485,3.951-21.737-10.672-46.24c-13.701-22.96-39.547-18.006-42.748-17.092c-3.203-0.914-29.049-5.868-42.75,17.092
							c-14.623,24.504-5.928,36.755-10.672,46.24c-4.742,9.485-7.904,22.922-1.58,31.222c6.324,8.3,17.391,13.833,12.252,20.946
							c-5.139,7.114-23.318-1.186-26.084,13.438c-2.768,14.623,13.041,22.922,13.438,30.432c0.394,7.509-11.858,18.18-5.93,21.341
							c5.93,3.162,35.691,15.018,61.326,15.018c25.633,0,55.395-11.856,61.324-15.018
							C705.43,297.03,693.178,286.359,693.572,278.851z"/>
						<g>
							<path style="fill:#FFD3AB;" d="M716.654,291.628c-1.055-31.091-5.797-35.57-22.66-38.543
								c-16.861-2.973-38.994,10.877-42.156,0.865c-3.162-10.012,0-27.139,0-27.139h-27.322c0,0,3.162,17.127,0,27.139
								c-3.16,10.011-25.295-3.838-42.156-0.865c-16.861,2.973-21.604,7.452-22.658,38.543c-1.055,31.09,3.951,39.522,3.951,39.522
								h149.049C712.701,331.15,717.707,322.719,716.654,291.628z"/>
							<path style="fill:#FF4A4D;" d="M708.398,258.483c-16.184,12.463-41.615,20.498-70.221,20.498
								c-28.605,0-54.039-8.035-70.223-20.498c-5.52,4.794-7.6,13.835-8.254,33.145c-1.055,31.09,3.951,39.522,3.951,39.522h149.049
								c0,0,5.006-8.431,3.953-39.522C715.998,272.318,713.92,263.278,708.398,258.483z"/>
							<path style="fill:#E4BC99;" d="M644.621,242.579c2.084-2.206,4.107-3.952,5.99-5.338c0.379-5.826,1.227-10.429,1.227-10.429
								h-27.322c0,0,3.162,17.127,0,27.139c-1.135,3.594-4.723,4.106-9.625,3.433C631.223,263.424,636.959,250.69,644.621,242.579z"
								/>
							<g>
								<g>
									<path style="fill:#E4BC99;" d="M608.994,179.07c0,0-12.008-11.048-17.291,0c-5.281,11.048,14.891,30.736,21.133,27.377
										C619.08,203.086,608.994,179.07,608.994,179.07z"/>
									<path style="fill:#E4BC99;" d="M667.361,179.07c0,0,12.008-11.048,17.289,0c5.283,11.048-14.889,30.736-21.133,27.377
										C657.275,203.086,667.361,179.07,667.361,179.07z"/>
								</g>
								<path style="fill:#FFD3AB;" d="M673.123,156.497c-0.961-29.779-29.521-29.806-34.945-29.806
									c-5.424,0-33.986,0.027-34.947,29.806c-0.961,29.78,0.482,51.393,6.725,60.997c6.18,9.507,20.934,20.868,28.223,20.868
									c7.287,0,22.043-11.361,28.221-20.868C672.643,207.89,674.084,186.277,673.123,156.497z"/>
							</g>
							<g>
								<path style="fill:#FFFFFF;" d="M632.617,215.981c0.787-0.078,1.527-0.251,2.125-0.572c2.605-1.404,2.328,0.066,3.435,0.066
									c1.107,0,0.83-1.47,3.436-0.066c0.598,0.321,1.34,0.495,2.127,0.572c-1.996,0.46-4.334,0.932-5.563,0.932
									C636.949,216.913,634.611,216.441,632.617,215.981z"/>
								<path style="fill:#B80000;" d="M647.248,215.106c0,0-6.664,1.807-9.07,1.807c-2.406,0-9.072-1.807-9.072-1.807
									c-1.082,4.689,6.695,5.803,9.072,5.803C640.555,220.909,648.33,219.795,647.248,215.106z"/>
								<path style="fill:#D60000;" d="M644.221,211.399c-3.209-2.939-5-2.014-6.008-1.304c-0.012,0.009-0.023,0.021-0.035,0.03
									c-0.012-0.009-0.023-0.021-0.035-0.03c-1.008-0.71-2.801-1.636-6.008,1.304c-3.207,2.94-5.346,4.009-5.346,4.009
									s5.348,1.405,7.953,0c2.605-1.404,2.328,0.066,3.435,0.066c1.107,0,0.83-1.47,3.436-0.066c2.606,1.405,7.953,0,7.953,0
									S647.428,214.339,644.221,211.399z"/>
							</g>
							<path style="fill:#E4BC99;" d="M645.182,198.445c0,0-3.299,4.486-7.004,4.486c-3.707,0-7.006-4.486-7.006-4.486
								s0.896,6.323,7.006,6.323C644.287,204.768,645.182,198.445,645.182,198.445z"/>
						</g>
						<path style="fill:#E09A2C;" d="M676.15,158.819c-0.004-1.953-0.012-3.276-0.012-3.276
							c-1.496-15.719-9.717-32.471-37.961-32.471c-28.18,0-36.426,16.672-37.949,32.359c-2.601,10.112,0.744,21.585,0.744,21.585
							c12.963-6.443,23.318-17.997,29.846-26.766c0.143-0.044,0.283-0.09,0.424-0.132c-6.447,11.706-19.203,25.317-19.203,25.317
							s9.09,0,24.504-10.275c5.867-3.912,9.498-8.243,11.748-12.108c0.543,3.513,1.828,7.407,4.652,10.396
							c6.719,7.114,8.693,7.509,8.693,7.509s-0.959-6.155-2.166-12.517c0.004,0.003,0.008,0.005,0.01,0.008
							c1.424,2.78,3.063,5.313,4.924,7.174c7.904,7.904,8.496,17.192,8.496,17.192S678.025,176.739,676.15,158.819z"/>
					</g>
				</g>
			</g>
		</g>
		<g>
			<g>
				<path style="fill:#A9C293;" d="M751.992,585.181c0,62.858-50.957,113.815-113.815,113.815
					c-62.859,0-113.816-50.957-113.816-113.815c0-62.859,50.957-113.816,113.816-113.816
					C701.035,471.365,751.992,522.321,751.992,585.181z"/>
				<g>
					<defs>
						<path id="SVGID_00000052098630552610180200000016417033675521558431_" d="M751.992,585.181
							c0,62.858-50.957,113.815-113.815,113.815c-62.859,0-113.816-50.957-113.816-113.815c0-62.859,50.957-113.816,113.816-113.816
							C701.035,471.365,751.992,522.321,751.992,585.181z"/>
					</defs>
					<clipPath id="SVGID_00000075123563545947680860000010217185181601469872_">
						<use xlink:href="#SVGID_00000052098630552610180200000016417033675521558431_"  style="overflow:visible;"/>
					</clipPath>
					<g style="clip-path:url(#SVGID_00000075123563545947680860000010217185181601469872_);">
						<g>
							<path style="fill:#FFD3AB;" d="M724.559,659.476c-1.055-31.091-10.541-33.198-27.402-36.172
								c-16.863-2.974-38.996,4.554-42.158-5.458c-3.162-10.012,0-23.187,0-23.187h-33.645c0,0,3.162,13.175,0,23.187
								c-3.16,10.012-25.295,2.484-42.156,5.458c-16.863,2.974-26.348,5.081-27.402,36.172c-1.053,31.09,3.162,39.521,3.162,39.521
								h166.44C721.396,698.996,725.611,690.565,724.559,659.476z"/>
							<path style="fill:#E4BC99;" d="M638.033,622.546c3.516-6.327,9.74-11.817,15.568-15.968
								c0.104-6.515,1.396-11.919,1.396-11.919h-33.645c0,0,3.162,13.175,0,23.187c-2.201,6.972-13.603,5.44-26.019,4.87
								C621.168,630.586,631.19,634.868,638.033,622.546z"/>
						</g>
						<g>
							<path style="fill:#3D4C90;" d="M724.559,659.476c-1.055-31.091-10.541-33.198-27.402-36.172
								c-8.266-1.457-17.793-0.395-25.736-0.107c0.041,2.356,0.065,4.729,0.065,7.121c0,25.713-3.318,49.463-8.115,68.679h58.027
								C721.396,698.996,725.611,690.565,724.559,659.476z"/>
							<path style="fill:#3D4C90;" d="M604.934,623.196c-7.943-0.287-17.471-1.35-25.736,0.107
								c-16.863,2.974-26.348,5.081-27.402,36.172c-1.053,31.09,3.162,39.521,3.162,39.521h58.027
								c-4.797-19.216-8.115-42.966-8.115-68.679C604.869,627.925,604.893,625.552,604.934,623.196z"/>
						</g>
						<path style="fill:#F0F0F0;" d="M671.42,623.196c-20.146,0-18.688,12.626-33.244,12.626c-14.557,0-15.555-12.626-33.242-12.626
							c-0.041,2.356-0.065,4.729-0.065,7.121c0,25.713,3.318,49.463,8.115,68.679h50.385c4.797-19.216,8.115-42.966,8.115-68.679
							C671.484,627.925,671.461,625.552,671.42,623.196z"/>
						<path style="fill:#AE3836;" d="M646.211,658.181c-1.779-9.289-3.797-8.695-3.797-8.695s-2.619-0.594-4.244-0.594
							s-4.244,0.594-4.244,0.594s-2.018-0.594-3.797,8.695c-1.777,9.287-3.559,40.815-3.559,40.815h23.197
							C649.768,698.996,647.988,667.468,646.211,658.181z"/>
						<path style="fill:#993130;" d="M642.414,649.485c0,0-2.619-0.594-4.244-0.594s-4.244,0.594-4.244,0.594
							s-1.34-0.393-2.799,4.487c2.256,0.294,4.613,0.453,7.043,0.453c2.43,0,4.787-0.159,7.043-0.453
							C643.752,649.093,642.414,649.485,642.414,649.485z"/>
						<path style="fill:#AE3836;" d="M638.17,634.666c-4.418,0-11.553,2.756-11.598,5.399c-0.053,3.117,3.426,10.012,6.982,10.408
							c1.715,0.191,3.363,0.196,4.615,0.152c1.254,0.044,2.902,0.038,4.615-0.152c3.557-0.396,7.035-7.291,6.982-10.408
							C649.723,637.422,642.588,634.666,638.17,634.666z"/>
						<g>
							<path style="fill:#FFFFFF;" d="M621.94,615.634c0,0,5.314,15.342,16.238,19.031c0,0-11.254,4.215-16.238,15.809
								c0,0-14.067-22.708-12.951-26.898C610.105,619.383,615.857,616.1,621.94,615.634z"/>
							<path style="fill:#FFFFFF;" d="M654.414,615.634c0,0-5.314,15.342-16.236,19.031c0,0,11.25,4.215,16.236,15.809
								c0,0,14.064-22.708,12.949-26.898C666.248,619.383,660.494,616.1,654.414,615.634z"/>
						</g>
						<g>
							<path style="fill:#4B5DB0;" d="M606.81,623.196c0,0-14.734-3.513-19.271-0.566c-4.539,2.944-3.756,40.489-3.357,43.125
								c0,0,13.016,1.581,13.031,5.27c0.016,3.69-10.523,13.174-10.523,13.174l6.322,14.798h21.85
								C614.861,698.996,605.328,644.398,606.81,623.196z"/>
							<path style="fill:#4B5DB0;" d="M669.543,623.196c0,0,14.732-3.513,19.271-0.566c4.539,2.944,3.754,40.489,3.355,43.125
								c0,0-13.014,1.581-13.029,5.27c-0.016,3.69,10.523,13.174,10.523,13.174l-6.324,14.798h-21.848
								C661.492,698.996,671.025,644.398,669.543,623.196z"/>
						</g>
						<g>
							<g>
								<g>
									<path style="fill:#E4BC99;" d="M610.717,551.399c0,0-11.299-10.445-16.268,0c-4.971,10.442,14.01,29.053,19.883,25.876
										C620.207,574.1,610.717,551.399,610.717,551.399z"/>
									<path style="fill:#E4BC99;" d="M665.635,551.399c0,0,11.299-10.445,16.27,0c4.971,10.442-14.01,29.053-19.885,25.876
										C656.144,574.1,665.635,551.399,665.635,551.399z"/>
								</g>
								<path style="fill:#FFD3AB;" d="M671.059,530.062c-0.904-28.148-27.779-28.176-32.881-28.176
									c-5.104,0-31.98,0.027-32.883,28.176c-0.904,28.149,0.453,48.578,6.326,57.658c5.814,8.986,19.697,13.747,26.557,13.747
									c6.857,0,20.74-4.761,26.553-13.747C670.605,578.64,671.963,558.211,671.059,530.062z"/>
							</g>
							<path style="fill:#E4BC99;" d="M645.703,562.865c0,0-1.055,6.393-7.527,6.393c-6.473,0-7.527-6.393-7.527-6.393
								c-0.352-1.246-1.141-0.903-0.701,3.579c0.344,3.511,5.824,5.246,8.229,5.246c2.406,0,7.887-1.735,8.231-5.246
								C646.846,561.962,646.055,561.619,645.703,562.865z"/>
							<path style="fill:#E4BC99;" d="M647.711,584.259c0,0-1.307,1.824-9.535,1.824s-9.533-1.824-9.533-1.824
								c-1.045,1.054-0.785,2.502,1.435,2.896c1.789,0.319,4.529,0.614,8.098,0.614c3.57,0,6.309-0.295,8.098-0.614
								C648.496,586.761,648.754,585.313,647.711,584.259z"/>
							<path style="fill:#E4BC99;" d="M650.162,580.949c0,0-3.143-1.268-6.789-0.923c-2.205,0.208-4.148,0.549-5.197,0.549
								c-1.047,0-2.99-0.341-5.197-0.549c-3.646-0.346-6.789,0.923-6.789,0.923c-0.881,0.345-0.502,0.806,0.377,0.689
								c0.881-0.114,3.898-0.921,4.777-1.152c0.703-0.183,5.115,0.688,6.832,0.688c1.719,0,6.131-0.871,6.832-0.688
								c0.881,0.231,3.898,1.038,4.779,1.152C650.666,581.755,651.043,581.294,650.162,580.949z"/>
							<path style="fill:#281F3B;" d="M670.041,502.095c-5.33-6.5-21.215-10.367-31.877-10.367c-10.66,0-26.547,3.867-31.875,10.367
								c-9.492,11.581-3.516,55.291-1.758,57.532c1.758,2.241-1.406-5.231,4.219-12.87c5.625-7.639,5.043-30.839,5.043-30.839
								s4.805,9.506,19.334,9.714c4.807,0.067,14.512-1.7,18.162-3.426c1.818-0.314,3.416-0.381,4.689,0.063
								c4.219,1.471,8.217,4.507,8.217,4.507s-2.24,12.343,3.385,19.981c5.625,7.64,2.461,15.111,4.217,12.87
								C673.557,557.386,679.531,513.676,670.041,502.095z"/>
						</g>
					</g>
				</g>
			</g>
			<g>
				
					<ellipse transform="matrix(0.0172 -0.9999 0.9999 0.0172 -191.9665 975.0676)" style="fill:#F78B29;" cx="400.001" cy="585.181" rx="113.815" ry="113.816"/>
				<g>
					<defs>
						
							<ellipse id="SVGID_00000111869943078024787740000014800542324280137613_" transform="matrix(0.0172 -0.9999 0.9999 0.0172 -191.9665 975.0676)" cx="400.001" cy="585.181" rx="113.815" ry="113.816"/>
					</defs>
					<clipPath id="SVGID_00000110461224748478968960000004001419098114513076_">
						<use xlink:href="#SVGID_00000111869943078024787740000014800542324280137613_"  style="overflow:visible;"/>
					</clipPath>
					<g style="clip-path:url(#SVGID_00000110461224748478968960000004001419098114513076_);">
						<g>
							<path style="fill:#FFD3AB;" d="M486.381,659.476c-1.055-31.091-10.539-33.198-27.402-36.172
								c-16.861-2.974-38.996,4.554-42.156-5.458c-3.162-10.012,0-23.187,0-23.187h-33.645c0,0,3.162,13.175,0,23.187
								c-3.161,10.012-25.295,2.484-42.157,5.458c-16.862,2.974-26.348,5.081-27.401,36.172c-1.054,31.09,3.162,39.521,3.162,39.521
								h166.438C483.219,698.996,487.435,690.565,486.381,659.476z"/>
							<path style="fill:#E4BC99;" d="M399.858,622.546c3.515-6.327,9.737-11.817,15.567-15.968
								c0.102-6.515,1.397-11.919,1.397-11.919h-33.645c0,0,3.162,13.175,0,23.187c-2.202,6.972-13.605,5.44-26.02,4.87
								C382.992,630.586,393.013,634.868,399.858,622.546z"/>
						</g>
						<path style="fill:#546C78;" d="M486.381,659.476c-1.055-31.091-10.539-33.198-27.402-36.172
							c-9.771-1.723-21.307,0.075-29.9-0.051c0.035,0.106,0.08,0.213,0.109,0.322c1.115,4.19-12.951,26.898-12.951,26.898
							c-4.984-11.594-16.235-15.809-16.235-15.809s-11.253,4.215-16.237,15.809c0,0-14.066-22.708-12.951-26.898
							c0.029-0.109,0.074-0.216,0.109-0.322c-8.594,0.126-20.129-1.672-29.901,0.051c-16.862,2.974-26.348,5.081-27.401,36.172
							c-1.054,31.09,3.162,39.521,3.162,39.521h166.438C483.219,698.996,487.435,690.565,486.381,659.476z"/>
						<path style="fill:#A6BDCC;" d="M400.001,634.665c-5.327-1.799-14.031,0.763-14.031,7.311c0,1.39,0.067,2.757,0.181,4.104
							c1.449,17.163,11.483,30.479,13.85,30.479c2.365,0,12.4-13.315,13.85-30.479c0.113-1.347,0.18-2.714,0.18-4.103
							C414.029,635.428,405.326,632.866,400.001,634.665z"/>
						<g>
							<path style="fill:#6A8897;" d="M383.764,615.634c0,0,5.313,15.342,16.237,19.031c0,0-11.253,4.215-16.237,15.809
								c0,0-14.066-22.708-12.951-26.898C371.929,619.383,377.682,616.1,383.764,615.634z"/>
							<path style="fill:#6A8897;" d="M416.236,615.634c0,0-5.314,15.342-16.235,19.031c0,0,11.251,4.215,16.235,15.809
								c0,0,14.066-22.708,12.951-26.898C428.07,619.383,422.318,616.1,416.236,615.634z"/>
						</g>
						<g>
							<path style="fill:#DBDDCC;" d="M402.502,648.233c0,1.383-1.119,2.504-2.502,2.504c-1.382,0-2.503-1.121-2.503-2.504
								c0-1.382,1.121-2.503,2.503-2.503C401.383,645.731,402.502,646.852,402.502,648.233z"/>
							<path style="fill:#DBDDCC;" d="M402.502,661.539c0,1.383-1.119,2.503-2.502,2.503c-1.382,0-2.503-1.12-2.503-2.503
								c0-1.383,1.121-2.503,2.503-2.503C401.383,659.036,402.502,660.156,402.502,661.539z"/>
						</g>
						<g>
							<g>
								<g>
									<path style="fill:#E4BC99;" d="M369.13,546.917c0,0-12.702-11.048-18.289,0c-5.587,11.049,15.751,30.736,22.354,27.376
										C379.799,570.934,369.13,546.917,369.13,546.917z"/>
									<path style="fill:#E4BC99;" d="M430.869,546.917c0,0,12.703-11.048,18.289,0c5.588,11.049-15.75,30.736-22.355,27.376
										C420.201,570.934,430.869,546.917,430.869,546.917z"/>
								</g>
								<path style="fill:#FFD3AB;" d="M436.965,524.344c-1.016-29.779-31.228-29.806-36.964-29.806
									c-5.737,0-35.95,0.026-36.967,29.806c-1.017,29.78,0.509,51.393,7.113,60.998c6.535,9.507,22.143,14.544,29.854,14.544
									c7.708,0,23.315-5.037,29.852-14.544C436.455,575.737,437.982,554.124,436.965,524.344z"/>
							</g>
							<path style="fill:#E4BC99;" d="M408.461,559.047c0,0-1.185,6.764-8.461,6.764c-7.276,0-8.462-6.764-8.462-6.764
								c-0.395-1.316-1.284-0.955-0.79,3.787c0.387,3.714,6.549,5.549,9.252,5.549c2.703,0,8.865-1.835,9.252-5.549
								C409.746,558.092,408.855,557.731,408.461,559.047z"/>
							<path style="fill:#E4BC99;" d="M408.406,580.753c0,0-1.152,1.536-8.406,1.536c-7.254,0-8.405-1.536-8.405-1.536
								c-0.921,0.887-0.69,2.107,1.266,2.439c1.578,0.268,3.994,0.517,7.14,0.517c3.146,0,5.56-0.248,7.139-0.517
								C409.096,582.86,409.326,581.64,408.406,580.753z"/>
							<path style="fill:#E4BC99;" d="M410.566,577.966c0,0-2.771-1.066-5.986-0.775c-1.943,0.176-3.655,0.462-4.58,0.462
								c-0.924,0-2.638-0.286-4.581-0.462c-3.215-0.291-5.986,0.775-5.986,0.775c-0.775,0.291-0.443,0.68,0.332,0.582
								c0.776-0.098,3.438-0.776,4.212-0.97c0.619-0.154,4.509,0.579,6.023,0.579c1.514,0,5.404-0.733,6.023-0.579
								c0.773,0.193,3.436,0.872,4.211,0.97C411.01,578.646,411.342,578.257,410.566,577.966z"/>
							<path style="fill:#936342;" d="M437.744,539.615c-0.209-3.952-2.076-1.581-2.492,2.964c0,0-1.869,20.75-7.473,25.69
								c-5.148,4.537-8.897,5.741-12.852,7.132c-3.414-1.715-4-3.158-8.115-4.761c-3.742-1.457-6.086-0.263-6.813,0.218
								c-0.726-0.48-3.071-1.675-6.814-0.218c-4.116,1.603-4.701,3.046-8.116,4.761c-3.954-1.391-7.702-2.595-12.85-7.132
								c-5.605-4.94-7.474-25.69-7.474-25.69c-0.415-4.545-2.283-6.916-2.491-2.964c-0.207,3.952-1.66,7.707-1.245,13.833
								c0.415,6.125,2.906,16.797,3.529,21.539c0.622,4.742,3.944,10.473,6.851,15.018c2.905,4.546,7.473,7.114,12.454,7.707
								c4.982,0.593,12.465,5.732,16.155,5.732c3.689,0,11.172-5.139,16.154-5.732c4.982-0.593,9.549-3.161,12.455-7.707
								c2.906-4.545,6.229-10.275,6.85-15.018c0.623-4.742,3.115-15.414,3.531-21.539
								C439.404,547.322,437.951,543.567,437.744,539.615z M405.361,584.67c-3.066,0.691-4.624,0.936-5.361,1.275
								c-0.738-0.34-2.295-0.584-5.361-1.275c-4.614-1.04-5.25-3.365-5.857-5.433c3.212-1.419,6.682-3.696,10.545-3.461
								c0.213,0.015,0.438,0.018,0.673,0.015c0.235,0.004,0.461,0,0.673-0.015c3.862-0.235,7.333,2.042,10.544,3.461
								C410.611,581.305,409.975,583.63,405.361,584.67z"/>
							<path style="fill:#936342;" d="M438.525,529.802c-0.525-10.539,0.791-18.179-5.533-23.977
								c-6.322-5.797-8.43-8.431-14.754-10.275c-6.322-1.845-14.623-3.821-18.238-3.821c-3.616,0-11.916,1.977-18.239,3.821
								c-6.323,1.845-8.432,4.478-14.755,10.275c-6.323,5.798-5.006,13.438-5.533,23.977c-0.527,10.538,1.581,10.012,2.108,7.641
								c0.527-2.371,3.162-3.425,4.216-6.587c1.053-3.162,1.317-7.904,0.264-11.858c-1.055-3.951,8.431-8.694,11.329-14.227
								c2.898-5.533,15.4-7.668,20.61-7.668c5.209,0,17.711,2.135,20.609,7.668c2.898,5.533,12.383,10.276,11.33,14.227
								c-1.055,3.953-0.791,8.695,0.264,11.858c1.053,3.162,3.688,4.216,4.215,6.587
								C436.945,539.813,439.055,540.34,438.525,529.802z"/>
						</g>
					</g>
				</g>
			</g>
			<g>
				
					<ellipse transform="matrix(0.0562 -0.9984 0.9984 0.0562 -431.5317 713.8389)" style="fill:#3D8B8E;" cx="161.823" cy="585.181" rx="113.815" ry="113.816"/>
				<g>
					<defs>
						
							<ellipse id="SVGID_00000176001654675887196420000018129967385803537829_" transform="matrix(0.0562 -0.9984 0.9984 0.0562 -431.5317 713.8389)" cx="161.823" cy="585.181" rx="113.815" ry="113.816"/>
					</defs>
					<clipPath id="SVGID_00000165946874525015246440000009345436462857117623_">
						<use xlink:href="#SVGID_00000176001654675887196420000018129967385803537829_"  style="overflow:visible;"/>
					</clipPath>
					<g style="clip-path:url(#SVGID_00000165946874525015246440000009345436462857117623_);">
						<g>
							<path style="fill:#FFD3AB;" d="M248.204,661.989c-1.054-31.091-10.539-33.198-27.401-36.171
								c-16.862-2.974-38.995,4.553-42.157-5.459c-3.161-10.011,0-23.186,0-23.186h-33.644c0,0,3.162,13.175,0,23.186
								c-3.162,10.012-25.295,2.485-42.157,5.459c-16.861,2.973-26.347,5.08-27.401,36.171c-1.054,31.091,3.162,39.521,3.162,39.521
								h166.438C245.042,701.511,249.258,693.08,248.204,661.989z"/>
							<path style="fill:#E4BC99;" d="M161.682,625.06c3.515-6.327,9.738-11.818,15.567-15.968
								c0.103-6.516,1.396-11.919,1.396-11.919h-33.644c0,0,3.162,13.175,0,23.186c-2.201,6.973-13.604,5.44-26.019,4.87
								C144.815,633.1,154.836,637.382,161.682,625.06z"/>
						</g>
						<g>
							<g>
								<path style="fill:#E4BC99;" d="M130.954,549.431c0,0-12.702-11.048-18.29,0c-5.587,11.048,15.751,30.736,22.354,27.377
									C141.622,573.447,130.954,549.431,130.954,549.431z"/>
								<path style="fill:#E4BC99;" d="M192.692,549.431c0,0,12.702-11.048,18.289,0c5.588,11.048-15.75,30.736-22.354,27.377
									C182.024,573.447,192.692,549.431,192.692,549.431z"/>
							</g>
							<path style="fill:#FFD3AB;" d="M198.789,526.858c-1.017-29.779-31.229-29.807-36.966-29.807
								c-5.736,0-35.949,0.027-36.966,29.807c-1.017,29.78,0.509,51.392,7.113,60.998c6.535,9.506,22.143,14.543,29.852,14.543
								c7.71,0,23.317-5.037,29.854-14.543C198.28,578.25,199.806,556.639,198.789,526.858z"/>
						</g>
						<path style="fill:#E4BC99;" d="M170.285,561.562c0,0-1.187,6.763-8.462,6.763c-7.276,0-8.462-6.763-8.462-6.763
							c-0.395-1.317-1.284-0.955-0.79,3.787c0.387,3.714,6.549,5.548,9.252,5.548c2.703,0,8.865-1.834,9.252-5.548
							C171.569,560.606,170.68,560.244,170.285,561.562z"/>
						<path style="fill:#E4BC99;" d="M170.229,583.268c0,0-1.152,1.536-8.406,1.536s-8.405-1.536-8.405-1.536
							c-0.921,0.887-0.691,2.106,1.267,2.438c1.576,0.268,3.993,0.518,7.139,0.518c3.148,0,5.562-0.249,7.139-0.518
							C170.92,585.374,171.149,584.154,170.229,583.268z"/>
						<path style="fill:#E4BC99;" d="M172.391,580.481c0,0-2.771-1.066-5.985-0.776c-1.944,0.177-3.658,0.463-4.582,0.463
							c-0.924,0-2.638-0.286-4.581-0.463c-3.215-0.29-5.986,0.776-5.986,0.776c-0.775,0.29-0.443,0.679,0.333,0.581
							c0.775-0.097,3.436-0.775,4.212-0.97c0.619-0.153,4.508,0.579,6.022,0.579c1.515,0,5.403-0.732,6.023-0.579
							c0.776,0.194,3.436,0.873,4.212,0.97C172.834,581.159,173.166,580.771,172.391,580.481z"/>
						<g>
							<path style="fill:#CC7E61;" d="M248.204,661.989c-1.054-31.091-10.539-33.198-27.401-36.171
								c-9.544-1.684-20.774-0.005-29.3-0.044c-10.678,16.568-29.68,28.003-29.68,28.003s-19.002-11.435-29.681-28.003
								c-8.524,0.039-19.755-1.64-29.299,0.044c-16.861,2.973-26.347,5.08-27.401,36.171c-1.054,31.091,3.162,39.521,3.162,39.521
								h166.438C245.042,701.511,249.258,693.08,248.204,661.989z"/>
							<path style="fill:#CCAE88;" d="M161.824,664.053c9.352-5.633,26.308-24.017,37.461-38.542
								c-2.742,0.148-5.372,0.275-7.782,0.264c-10.678,16.568-29.68,28.003-29.68,28.003s-19.002-11.435-29.681-28.003
								c-2.408,0.011-5.038-0.115-7.78-0.264C135.514,640.033,152.466,658.416,161.824,664.053z"/>
						</g>
						<path style="fill:#EAA420;" d="M202.094,524.938c0-4.744-2.174-14.228-8.498-20.947c-3.885-4.129-8.811-5.718-12.035-6.331
							c-0.85-1.609-2.103-3.005-3.772-3.944c-4.03-2.266-13.997-1.964-22.948-1.039c-3.76-0.217-7.863-0.618-10.514-1.727
							c-5.285-2.209-7.246-5.796-7.246-5.796c-1.459,3.316,0.023,6.565,3.232,9.143c-4.959-0.216-6.536-2.307-6.536-2.307
							s0.746,2.25,3.026,4.194c-5.949,2.917-10.012,8.474-11.578,12.549c-1.977,5.139-1.581,9.486-4.743,19.762
							c-3.161,10.275,2.898,19.761,3.952,19.366c1.054-0.396,3.162-5.93,2.767-13.043c-0.396-7.114,8.3-14.228,8.3-14.228
							c-2.767,6.322,0,12.251,0,12.251c1.976-10.671,12.251-17.39,12.251-17.39c-4.347,5.139-5.533,13.833-5.533,13.833
							c5.139-7.509,15.018-16.599,15.018-16.599c-0.79,4.348-3.952,7.904-3.952,7.904c8.695-1.186,12.647-7.51,12.647-7.51
							c-0.791,3.557-4.348,6.719-4.348,6.719c4.021-1.34,10.465-4.801,14.195-6.89c0.608,3.711-0.23,8.602-0.23,8.602
							s4.033-3.685,7.193-7.51c-0.015,0.723-0.076,1.47-0.212,2.24c-1.186,6.719,1.186,15.017,1.186,15.017l2.767-8.694
							c1.976,2.372,6.323,5.929,8.3,13.042c1.976,7.114,3.161,14.755,4.742,12.779c1.581-1.977,2.964-9.024,2.964-13.372
							C202.488,530.669,202.094,529.681,202.094,524.938z"/>
					</g>
				</g>
			</g>
		</g>
	</g>
</g>
</svg>
